<svg width="24" height="25" viewBox="0 0 24 25" fill="none" xmlns="http://www.w3.org/2000/svg">
<path d="M22 19.5V22.5H2V19.5C2 18.95 2.45 18.5 3 18.5H21C21.55 18.5 22 18.95 22 19.5Z" fill="#170C36" stroke="#292D32" stroke-width="1.5" stroke-miterlimit="10" stroke-linecap="round" stroke-linejoin="round"/>
<path d="M7 11.5H5V18.5H7V11.5Z" fill="#292D32"/>
<path d="M11 11.5H9V18.5H11V11.5Z" fill="#292D32"/>
<path d="M15 11.5H13V18.5H15V11.5Z" fill="#292D32"/>
<path d="M19 11.5H17V18.5H19V11.5Z" fill="#292D32"/>
<path d="M23 23.25H1C0.59 23.25 0.25 22.91 0.25 22.5C0.25 22.09 0.59 21.75 1 21.75H23C23.41 21.75 23.75 22.09 23.75 22.5C23.75 22.91 23.41 23.25 23 23.25Z" fill="#292D32"/>
<path d="M21.37 6.25009L12.37 2.65009C12.17 2.57009 11.83 2.57009 11.63 2.65009L2.63 6.25009C2.28 6.39009 2 6.80009 2 7.18009V10.5001C2 11.0501 2.45 11.5001 3 11.5001H21C21.55 11.5001 22 11.0501 22 10.5001V7.18009C22 6.80009 21.72 6.39009 21.37 6.25009ZM12 9.00009C11.17 9.00009 10.5 8.33009 10.5 7.50009C10.5 6.67009 11.17 6.00009 12 6.00009C12.83 6.00009 13.5 6.67009 13.5 7.50009C13.5 8.33009 12.83 9.00009 12 9.00009Z" fill="#292D32"/>
</svg>
