<svg width="24" height="24" viewBox="0 0 24 24" fill="none" xmlns="http://www.w3.org/2000/svg">
<path d="M11.9636 14.4092L11.9638 14.4094L15.0545 16.2538C15.2677 16.3922 15.4941 16.44 15.7 16.44C16.1252 16.44 16.5438 16.2265 16.7793 15.8263C17.1425 15.2266 16.9408 14.4592 16.3443 14.1095L13.2462 12.2606L13.2462 12.2606L13.2411 12.2576C13.1915 12.2288 13.0936 12.134 13.0034 11.9753C12.9135 11.8172 12.88 11.6816 12.88 11.62V7.52C12.88 6.83386 12.3161 6.27 11.63 6.27C10.9439 6.27 10.38 6.83386 10.38 7.52V11.62C10.38 12.6856 11.0422 13.8588 11.9636 14.4092ZM2.5 12C2.5 6.76614 6.76614 2.5 12 2.5C17.2339 2.5 21.5 6.76614 21.5 12C21.5 17.2339 17.2339 21.5 12 21.5C6.76614 21.5 2.5 17.2339 2.5 12Z" fill="#FF0C81" stroke="#FF0C81"/>
</svg>
