<svg width="64" height="64" viewBox="0 0 64 64" fill="none" xmlns="http://www.w3.org/2000/svg">
<mask id="mask0_696_7306" style="mask-type:alpha" maskUnits="userSpaceOnUse" x="0" y="0" width="64" height="64">
<circle cx="32" cy="32" r="32" fill="#D9D9D9"/>
</mask>
<g mask="url(#mask0_696_7306)">
<rect width="64" height="64" rx="32" fill="#E25520" fill-opacity="0.09"/>
<rect x="0.5" y="0.5" width="63" height="63" rx="31.5" stroke="#E25520" stroke-opacity="0.09"/>
<path d="M27.75 26.75C27.75 24.4061 29.6561 22.5 32 22.5C34.3435 22.5 36.2495 24.4056 36.25 26.749C36.2405 29.0486 34.4468 30.9052 32.161 30.99H32.161H32.1609H32.1609H32.1609H32.1609H32.1608H32.1608H32.1608H32.1607H32.1607H32.1607H32.1606H32.1606H32.1606H32.1606H32.1605H32.1605H32.1605H32.1604H32.1604H32.1604H32.1604H32.1603H32.1603H32.1603H32.1602H32.1602H32.1602H32.1601H32.1601H32.1601H32.1601H32.16H32.16H32.16H32.1599H32.1599H32.1599H32.1599H32.1598H32.1598H32.1598H32.1597H32.1597H32.1597H32.1596H32.1596H32.1596H32.1596H32.1595H32.1595H32.1595H32.1594H32.1594H32.1594H32.1594H32.1593H32.1593H32.1593H32.1592H32.1592H32.1592H32.1591H32.1591H32.1591H32.1591H32.159H32.159H32.159H32.1589H32.1589H32.1589H32.1588H32.1588H32.1588H32.1588H32.1587H32.1587H32.1587H32.1586H32.1586H32.1586H32.1585H32.1585H32.1585H32.1585H32.1584H32.1584H32.1584H32.1583H32.1583H32.1583H32.1582H32.1582H32.1582H32.1581H32.1581H32.1581H32.1581H32.158H32.158H32.158H32.1579H32.1579H32.1579H32.1578H32.1578H32.1578H32.1577H32.1577H32.1577H32.1576H32.1576H32.1576H32.1575H32.1575H32.1575H32.1575H32.1574H32.1574H32.1574H32.1573H32.1573H32.1573H32.1572H32.1572H32.1572H32.1571H32.1571H32.1571H32.157H32.157H32.157H32.1569H32.1569H32.1569H32.1568H32.1568H32.1568H32.1567H32.1567H32.1566H32.1566H32.1566H32.1565H32.1565H32.1565H32.1564H32.1564H32.1564H32.1563H32.1563H32.1563H32.1562H32.1562H32.1562H32.1561H32.1561H32.156H32.156H32.156H32.1559H32.1559H32.1559H32.1558H32.1558H32.1558H32.1557H32.1557H32.1556H32.1556H32.1556H32.1555H32.1555H32.1555H32.1554H32.1554H32.1553H32.1553H32.1553H32.1552H32.1552H32.1551H32.1551H32.1551H32.155H32.155H32.1549H32.1549H32.1549H32.1548H32.1548H32.1547H32.1547H32.1547H32.1546H32.1546H32.1545H32.1545H32.1545H32.1544H32.1544H32.1543H32.1543H32.1542H32.1542H32.1542H32.1541H32.1541H32.154H32.154H32.1539H32.1539H32.1539H32.1538H32.1538H32.1537H32.1537H32.1536H32.1536H32.1535H32.1535H32.1535H32.1534H32.1534H32.1533H32.1533H32.1532H32.1532H32.1531H32.1531H32.153H32.153H32.1529H32.1529H32.1529H32.1528H32.1528H32.1527H32.1527H32.1526H32.1526H32.1525H32.1525H32.1524H32.1524H32.1523H32.1523H32.1522H32.1522H32.1521H32.1521H32.152H32.152H32.1519H32.1519H32.1518H32.1518H32.1517H32.1517H32.1516H32.1516H32.1515H32.1514H32.1514H32.1513H32.1513H32.1512H32.1512H32.1511H32.1511H32.151H32.151H32.1509H32.1509H32.1508H32.1507H32.1507H32.1506H32.1506H32.1505H32.1505H32.1504H32.1503H32.1503H32.1502H32.1502H32.1501H32.1501H32.15H32.1499H32.1498H32.1496H32.1495H32.1494H32.1493H32.1492H32.1491H32.149H32.1488H32.1487H32.1486H32.1485H32.1484H32.1483H32.1482H32.148H32.1479H32.1478H32.1477H32.1476H32.1475H32.1474H32.1473H32.1471H32.147H32.1469H32.1468H32.1467H32.1466H32.1465H32.1464H32.1463H32.1461H32.146H32.1459H32.1458H32.1457H32.1456H32.1455H32.1454H32.1453H32.1452H32.1451H32.1449H32.1448H32.1447H32.1446H32.1445H32.1444H32.1443H32.1442H32.1441H32.144H32.1439H32.1438H32.1437H32.1436H32.1435H32.1433H32.1432H32.1431H32.143H32.1429H32.1428H32.1427H32.1426H32.1425H32.1424H32.1423H32.1422H32.1421H32.142H32.1419H32.1418H32.1417H32.1416H32.1415H32.1414H32.1413H32.1412H32.1411H32.141H32.1409H32.1408H32.1407H32.1406H32.1405H32.1404H32.1403H32.1402H32.1401H32.14H32.1399H32.1398H32.1397H32.1396H32.1395H32.1394H32.1393H32.1392H32.1391H32.139H32.1389H32.1388H32.1387H32.1386H32.1385H32.1384H32.1383H32.1382H32.1381H32.138H32.1379H32.1378H32.1377H32.1376H32.1375H32.1374H32.1373H32.1372H32.1371H32.137H32.1369H32.1368H32.1368H32.1367H32.1366H32.1365H32.1364H32.1363H32.1362H32.1361H32.136H32.1359H32.1358H32.1357H32.1356H32.1355H32.1354H32.1353H32.1352H32.1351H32.1351H32.135H32.1349H32.1348H32.1347H32.1346H32.1345H32.1344H32.1343H32.1342H32.1341H32.134H32.1339H32.1338H32.1338C32.0433 30.9796 31.9492 30.9808 31.8625 30.989C29.5254 30.8911 27.75 29.0357 27.75 26.75Z" fill="#FF0C81" stroke="#FF0C81"/>
<path d="M27.1987 40.1749L27.1973 40.174C26.0384 39.4013 25.46 38.4018 25.46 37.38C25.46 36.3579 26.0387 35.3485 27.207 34.5662C28.5136 33.7018 30.2518 33.255 32.0125 33.255C33.7738 33.255 35.5067 33.7021 36.8026 34.566C37.958 35.3363 38.5309 36.3356 38.54 37.3621C38.5392 38.3935 37.9603 39.3928 36.8008 40.1752C35.5 41.0484 33.7627 41.5 32 41.5C30.237 41.5 28.4996 41.0483 27.1987 40.1749Z" fill="#FF0C81" stroke="#FF0C81"/>
</g>
</svg>
