<svg width="62" height="62" viewBox="0 0 62 62" fill="none" xmlns="http://www.w3.org/2000/svg">
<path d="M18.0837 5.16675H15.5003C7.75033 5.16675 5.16699 9.79091 5.16699 15.5001V18.0834V54.2501C5.16699 56.3942 7.59533 57.6084 9.30032 56.3167L13.7178 53.0101C14.7512 52.2351 16.1978 52.3384 17.1278 53.2684L21.4162 57.5826C22.4237 58.5901 24.077 58.5901 25.0845 57.5826L29.4245 53.2426C30.3287 52.3384 31.7753 52.2351 32.7828 53.0101L37.2003 56.3167C38.9053 57.5826 41.3337 56.3684 41.3337 54.2501V10.3334C41.3337 7.49175 43.6587 5.16675 46.5003 5.16675H18.0837ZM29.0628 35.5209H17.4378C16.3787 35.5209 15.5003 34.6426 15.5003 33.5834C15.5003 32.5242 16.3787 31.6459 17.4378 31.6459H29.0628C30.122 31.6459 31.0003 32.5242 31.0003 33.5834C31.0003 34.6426 30.122 35.5209 29.0628 35.5209ZM31.0003 25.1876H15.5003C14.4412 25.1876 13.5628 24.3092 13.5628 23.2501C13.5628 22.1909 14.4412 21.3126 15.5003 21.3126H31.0003C32.0595 21.3126 32.9378 22.1909 32.9378 23.2501C32.9378 24.3092 32.0595 25.1876 31.0003 25.1876Z" fill="#E25520"/>
<path d="M46.5255 5.16675V9.04175C48.2305 9.04175 49.858 9.73925 51.0463 10.9017C52.2863 12.1676 52.958 13.7951 52.958 15.5001V21.7517C52.958 23.6634 52.1055 24.5417 50.168 24.5417H45.208V10.3592C45.208 9.63592 45.8022 9.04175 46.5255 9.04175V5.16675ZM46.5255 5.16675C43.658 5.16675 41.333 7.49175 41.333 10.3592V28.4167H50.168C54.2497 28.4167 56.833 25.8334 56.833 21.7517V15.5001C56.833 12.6584 55.6705 10.0751 53.8105 8.18925C51.9247 6.32925 49.3672 5.19258 46.5255 5.16675C46.5513 5.16675 46.5255 5.16675 46.5255 5.16675Z" fill="#E25520"/>
</svg>
