<svg width="22" height="23" viewBox="0 0 22 23" fill="none" xmlns="http://www.w3.org/2000/svg">
<path d="M10.1258 1.07348C10.5068 0.387673 11.4932 0.387674 11.8742 1.07348L15.147 6.96453C15.2376 7.12777 15.3722 7.26235 15.5355 7.35304L21.4265 10.6258C22.1123 11.0068 22.1123 11.9932 21.4265 12.3742L15.5355 15.647C15.3722 15.7376 15.2376 15.8722 15.147 16.0355L11.8742 21.9265C11.4932 22.6123 10.5068 22.6123 10.1258 21.9265L6.85304 16.0355C6.76235 15.8722 6.62777 15.7376 6.46453 15.647L0.573483 12.3742C-0.112327 11.9932 -0.112326 11.0068 0.573483 10.6258L6.46453 7.35304C6.62777 7.26235 6.76235 7.12777 6.85304 6.96453L10.1258 1.07348Z" fill="white"/>
</svg>
