<svg width="24" height="25" viewBox="0 0 24 25" fill="none" xmlns="http://www.w3.org/2000/svg">
<path d="M21.9798 11.91C21.6398 6.10995 16.3698 1.63996 10.2998 2.63996C6.1198 3.32996 2.7698 6.71994 2.1198 10.8999C1.7398 13.3199 2.23983 15.6099 3.32983 17.4999L2.43981 20.8099C2.23981 21.5599 2.92979 22.2399 3.66979 22.0299L6.9298 21.13C8.4098 22 10.1398 22.4999 11.9898 22.4999C17.6298 22.4999 22.3098 17.53 21.9798 11.91ZM16.8798 16.2199C16.7898 16.3999 16.6798 16.57 16.5398 16.73C16.2898 17 16.0198 17.2 15.7198 17.32C15.4198 17.45 15.0898 17.51 14.7398 17.51C14.2298 17.51 13.6798 17.39 13.1098 17.14C12.5298 16.89 11.9598 16.5599 11.3898 16.1499C10.8098 15.7299 10.2698 15.2599 9.74981 14.7499C9.22981 14.2299 8.76978 13.6799 8.34978 13.1099C7.93979 12.5399 7.6098 11.9699 7.3698 11.3999C7.1298 10.8299 7.00982 10.28 7.00982 9.75996C7.00982 9.41996 7.06981 9.08996 7.18981 8.78996C7.30981 8.47996 7.49983 8.19996 7.76983 7.94996C8.08983 7.62996 8.43981 7.47996 8.80981 7.47996C8.94981 7.47996 9.08978 7.50995 9.21978 7.56995C9.34978 7.62995 9.46981 7.71995 9.55981 7.84995L10.7198 9.48994C10.8098 9.61994 10.8798 9.72994 10.9198 9.83994C10.9698 9.94994 10.9898 10.0499 10.9898 10.1499C10.9898 10.2699 10.9498 10.39 10.8798 10.51C10.8098 10.63 10.7198 10.7499 10.5998 10.8699L10.2198 11.2699C10.1598 11.3299 10.1398 11.3899 10.1398 11.4699C10.1398 11.5099 10.1498 11.5499 10.1598 11.5899C10.1798 11.6299 10.1898 11.66 10.1998 11.6899C10.2898 11.86 10.4498 12.0699 10.6698 12.3299C10.8998 12.5899 11.1398 12.8599 11.3998 13.1199C11.6698 13.3899 11.9298 13.6299 12.1998 13.8599C12.4598 14.0799 12.6798 14.23 12.8498 14.32C12.8798 14.33 12.9098 14.3499 12.9398 14.3599C12.9798 14.3799 13.0198 14.38 13.0698 14.38C13.1598 14.38 13.2198 14.35 13.2798 14.29L13.6598 13.91C13.7898 13.78 13.9098 13.69 14.0198 13.63C14.1398 13.56 14.2498 13.5199 14.3798 13.5199C14.4798 13.5199 14.5798 13.5399 14.6898 13.5899C14.7998 13.6399 14.9198 13.7 15.0398 13.79L16.6998 14.9699C16.8298 15.0599 16.9198 15.17 16.9798 15.29C17.0298 15.42 17.0598 15.5399 17.0598 15.6799C16.9998 15.8499 16.9598 16.0399 16.8798 16.2199Z" fill="#170C36"/>
</svg>
