<svg width="24" height="25" viewBox="0 0 24 25" fill="none" xmlns="http://www.w3.org/2000/svg">
<path d="M21.9702 12.5C21.9702 15.81 19.2802 18.5 15.9702 18.5C15.2257 18.5 14.5095 18.3643 13.8513 18.1141C13.5326 17.9929 13.4732 17.5851 13.6951 17.3262C14.837 15.9938 15.4702 14.286 15.4702 12.5C15.4702 10.7082 14.8314 8.99432 13.6981 7.67467C13.4754 7.41543 13.5344 7.00621 13.8539 6.88494C14.5114 6.63537 15.2267 6.5 15.9702 6.5C19.2802 6.5 21.9702 9.19 21.9702 12.5Z" fill="#170C36"/>
<path d="M13.9702 12.5C13.9702 14.27 13.2002 15.87 11.9702 16.96C10.9102 17.92 9.51021 18.5 7.97021 18.5C4.66021 18.5 1.97021 15.81 1.97021 12.5C1.97021 9.19 4.66021 6.5 7.97021 6.5C9.51021 6.5 10.9102 7.08 11.9702 8.04C13.2002 9.13 13.9702 10.73 13.9702 12.5Z" fill="#170C36"/>
</svg>
