<svg width="24" height="25" viewBox="0 0 24 25" fill="none" xmlns="http://www.w3.org/2000/svg">
<path d="M20.97 8.5H18.03C16.76 8.5 16 7.74 16 6.47V3.53C16 2.26 16.76 1.5 18.03 1.5H20.97C22.24 1.5 23 2.26 23 3.53V6.47C23 7.74 22.24 8.5 20.97 8.5ZM21.19 5.19C21.07 5.07 20.91 5.01 20.75 5.01C20.59 5.01 20.43 5.07 20.31 5.19L20.13 5.37V3.13C20.13 2.78 19.85 2.5 19.5 2.5C19.15 2.5 18.87 2.78 18.87 3.13V5.37L18.69 5.19C18.45 4.95 18.05 4.95 17.81 5.19C17.57 5.43 17.57 5.83 17.81 6.07L19.06 7.32C19.11 7.37 19.18 7.41 19.25 7.44C19.27 7.45 19.29 7.45 19.31 7.46C19.36 7.48 19.41 7.49 19.47 7.49C19.49 7.49 19.51 7.49 19.53 7.49C19.6 7.49 19.66 7.48 19.73 7.45C19.74 7.45 19.74 7.45 19.75 7.45C19.82 7.42 19.88 7.38 19.93 7.33C19.94 7.32 19.94 7.32 19.95 7.32L21.2 6.07C21.44 5.83 21.44 5.43 21.19 5.19Z" fill="#170C36"/>
<path d="M9.00012 10.8801C10.3146 10.8801 11.3801 9.81456 11.3801 8.50012C11.3801 7.18568 10.3146 6.12012 9.00012 6.12012C7.68568 6.12012 6.62012 7.18568 6.62012 8.50012C6.62012 9.81456 7.68568 10.8801 9.00012 10.8801Z" fill="#170C36"/>
<path d="M20.97 8.5H20.5V13.11L20.37 13C19.59 12.33 18.33 12.33 17.55 13L13.39 16.57C12.61 17.24 11.35 17.24 10.57 16.57L10.23 16.29C9.52 15.67 8.39 15.61 7.59 16.15L3.85 18.66C3.63 18.1 3.5 17.45 3.5 16.69V8.31C3.5 5.49 4.99 4 7.81 4H16V3.53C16 3.13 16.07 2.79 16.23 2.5H7.81C4.17 2.5 2 4.67 2 8.31V16.69C2 17.78 2.19 18.73 2.56 19.53C3.42 21.43 5.26 22.5 7.81 22.5H16.19C19.83 22.5 22 20.33 22 16.69V8.27C21.71 8.43 21.37 8.5 20.97 8.5Z" fill="#292D32"/>
</svg>
