<svg width="52" height="52" viewBox="0 0 52 52" fill="none" xmlns="http://www.w3.org/2000/svg">
<rect width="52" height="52" rx="12" fill="#FF0C81"/>
<path d="M19.4087 26.4276L19.4088 26.4276L19.4117 26.4226C19.5619 26.1661 19.691 25.8206 19.7823 25.489C19.8735 25.1578 19.9402 24.7923 19.9402 24.49V22.63C19.9402 19.2777 22.665 16.5597 26.0209 16.55C29.3639 16.5504 32.0902 19.2759 32.0902 22.63V24.5C32.0902 24.8025 32.157 25.1683 32.2499 25.5008C32.3425 25.8325 32.4748 26.18 32.6324 26.4389C32.6327 26.4394 32.633 26.4399 32.6333 26.4404L33.7604 28.3155C33.7606 28.3158 33.7607 28.3161 33.7609 28.3164C34.0945 28.8785 34.1574 29.5395 33.9323 30.1439C33.7047 30.7447 33.2271 31.2144 32.6011 31.426C31.5449 31.778 30.4616 32.0511 29.3709 32.2264L29.3708 32.2263L29.3608 32.2281C29.2469 32.2488 29.1589 32.2645 29.0749 32.2721L29.0564 32.2738L29.038 32.2769C28.8737 32.3042 28.7072 32.3229 28.525 32.3431L28.525 32.343L28.5126 32.3446C28.3069 32.3727 28.0893 32.3917 27.8569 32.4119L27.8569 32.4119L27.852 32.4124C27.2484 32.4708 26.6344 32.5 26.0202 32.5C25.3957 32.5 24.7716 32.4708 24.1576 32.4123L24.1576 32.4122L24.1471 32.4114C23.8906 32.3924 23.6436 32.3639 23.3962 32.3259L23.3962 32.3258L23.3863 32.3244C23.239 32.3048 23.0945 32.2855 22.9597 32.2663C22.8972 32.2552 22.8367 32.247 22.7868 32.2402L22.7828 32.2396C22.726 32.2319 22.6819 32.2258 22.6396 32.2181L22.6397 32.2181L22.6346 32.2172C21.5458 32.0309 20.4809 31.7766 19.4283 31.4257L19.4247 31.4245C18.762 31.2092 18.2732 30.7352 18.0592 30.1566L18.0584 30.1545C17.8488 29.5955 17.9165 28.9237 18.2799 28.3056L19.4087 26.4276ZM25.9902 25.26C26.6863 25.26 27.2502 24.6962 27.2502 24V20.9C27.2502 20.2039 26.6863 19.64 25.9902 19.64C25.2941 19.64 24.7302 20.2039 24.7302 20.9V24C24.7302 24.6962 25.2941 25.26 25.9902 25.26Z" fill="white" stroke="white"/>
<path d="M24.0957 34.6143C24.1462 34.6193 24.1968 34.6239 24.2476 34.6282C24.8291 34.6792 25.4235 34.71 26.0202 34.71C26.6075 34.71 27.1926 34.6791 27.7646 34.628L27.7646 34.628L27.7676 34.6277C27.8106 34.6237 27.8582 34.6197 27.9088 34.6156C27.4475 35.1572 26.7623 35.5 26.0002 35.5C25.3412 35.5 24.6926 35.2319 24.24 34.7628L24.2313 34.7538L24.2221 34.7452C24.1784 34.7042 24.1362 34.6604 24.0957 34.6143Z" fill="white" stroke="white"/>
</svg>
