<svg width="446" height="427" viewBox="0 0 446 427" fill="none" xmlns="http://www.w3.org/2000/svg">
<path d="M-161.609 -33.9414C-161.179 14.3132 -129.881 117.903 -8.13006 146.225C144.058 181.627 163.187 150.494 178.215 241.466C193.242 332.439 253.207 385.576 302.672 369.9C352.137 354.225 364.704 396.457 351.266 425.732" stroke="white" stroke-opacity="0.03" stroke-width="2"/>
<path d="M-148.692 -56.3164C-148.262 -8.06175 -116.964 95.528 4.78694 123.85C156.975 159.252 176.104 128.119 191.132 219.091C206.159 310.064 266.124 363.201 315.589 347.525C365.053 331.85 377.621 374.082 364.183 403.357" stroke="white" stroke-opacity="0.03" stroke-width="2"/>
<path d="M-135.772 -78.6914C-135.342 -30.4368 -104.044 73.153 17.7069 101.475C169.895 136.877 189.024 105.744 204.051 196.716C219.079 287.689 279.044 340.826 328.509 325.15C377.973 309.475 390.541 351.707 377.103 380.982" stroke="white" stroke-opacity="0.03" stroke-width="2"/>
<path d="M-122.855 -101.066C-122.425 -52.8118 -91.1268 50.778 30.6239 79.0996C182.812 114.502 201.941 83.369 216.968 174.341C231.996 265.314 291.961 318.451 341.426 302.775C390.89 287.1 403.458 329.332 390.02 358.607" stroke="white" stroke-opacity="0.03" stroke-width="2"/>
<path d="M-109.938 -123.441C-109.508 -75.1868 -78.2098 28.403 43.5408 56.7246C195.729 92.1267 214.858 60.994 229.885 151.966C244.913 242.939 304.878 296.076 354.343 280.4C403.807 264.725 416.375 306.957 402.937 336.232" stroke="white" stroke-opacity="0.03" stroke-width="2"/>
<path d="M-97.0205 -145.816C-96.5902 -97.5618 -65.2919 6.02796 56.4588 34.3496C208.647 69.7517 227.776 38.619 242.803 129.591C257.831 220.564 317.796 273.701 367.26 258.025C416.725 242.35 429.293 284.582 415.855 313.857" stroke="white" stroke-opacity="0.03" stroke-width="2"/>
<path d="M-84.1025 -168.191C-83.6722 -119.937 -52.3739 -16.347 69.3768 11.9746C221.565 47.3767 240.694 16.244 255.721 107.216C270.749 198.189 330.714 251.326 380.178 235.65C429.643 219.975 442.211 262.207 428.773 291.482" stroke="white" stroke-opacity="0.03" stroke-width="2"/>
<path d="M-71.1865 -190.562C-70.7562 -142.308 -39.4579 -38.7181 82.2928 -10.3965C234.481 25.0056 253.61 -6.12709 268.637 84.8452C283.665 175.817 343.63 228.955 393.094 213.279C442.559 197.604 455.127 239.835 441.689 269.11" stroke="white" stroke-opacity="0.03" stroke-width="2"/>
<path d="M-58.2686 -212.937C-57.8382 -164.683 -26.5399 -61.0929 95.2108 -32.7712C247.399 2.63082 266.528 -28.5018 281.555 62.4704C296.582 153.443 356.548 206.58 406.012 190.904C455.477 175.229 468.045 217.461 454.607 246.736" stroke="white" stroke-opacity="0.03" stroke-width="2"/>
<path d="M-45.3506 -235.312C-44.9203 -187.058 -13.6219 -83.4681 108.129 -55.1465C260.317 -19.7444 279.446 -50.8771 294.473 40.0952C309.5 131.067 369.466 184.205 418.93 168.529C468.395 152.854 480.963 195.085 467.525 224.36" stroke="white" stroke-opacity="0.03" stroke-width="2"/>
<path d="M-32.4316 -257.688C-32.0013 -209.433 -0.702992 -105.843 121.048 -77.5215C273.236 -42.1194 292.365 -73.2521 307.392 17.7202C322.419 108.692 382.384 161.83 431.849 146.154C481.314 130.479 493.882 172.71 480.444 201.985" stroke="white" stroke-opacity="0.03" stroke-width="2"/>
<path d="M-19.5127 -280.062C-19.0824 -231.808 12.216 -128.218 133.967 -99.8965C286.155 -64.4944 305.284 -95.6271 320.311 -4.65482C335.338 86.3174 395.303 139.455 444.768 123.779C494.233 108.104 506.801 150.335 493.363 179.61" stroke="white" stroke-opacity="0.03" stroke-width="2"/>
<path d="M-6.59473 -302.438C-6.1644 -254.183 25.1339 -150.593 146.885 -122.271C299.073 -86.8694 318.202 -118.002 333.229 -27.0298C348.256 63.9424 408.221 117.08 457.686 101.404C507.151 85.7285 519.719 127.96 506.281 157.235" stroke="white" stroke-opacity="0.03" stroke-width="2"/>
<path d="M6.32324 -324.809C6.75357 -276.554 38.0519 -172.964 159.803 -144.643C311.991 -109.241 331.12 -140.373 346.147 -49.4009C361.174 41.5713 421.139 94.7088 470.604 79.0331C520.069 63.3574 532.637 105.589 519.199 134.864" stroke="white" stroke-opacity="0.03" stroke-width="2"/>
<path d="M19.2393 -347.184C19.6696 -298.929 50.9679 -195.339 172.719 -167.018C324.907 -131.616 344.036 -162.748 359.063 -71.7759C374.09 19.1963 434.055 72.3338 483.52 56.6581C532.985 40.9824 545.553 83.2144 532.115 112.489" stroke="white" stroke-opacity="0.03" stroke-width="2"/>
<path d="M32.1572 -369.559C32.5876 -321.304 63.8859 -217.714 185.637 -189.393C337.825 -153.991 356.954 -185.123 371.981 -94.1509C387.008 -3.17866 446.973 49.9588 496.438 34.2831C545.903 18.6074 558.471 60.8394 545.033 90.1144" stroke="white" stroke-opacity="0.03" stroke-width="2"/>
</svg>
