<svg width="762" height="427" viewBox="0 0 762 427" fill="none" xmlns="http://www.w3.org/2000/svg">
<path d="M-3.60938 -33.9415C-3.17905 14.3132 28.1193 117.903 149.87 146.225C302.058 181.627 321.187 150.494 336.215 241.466C351.242 332.438 411.207 385.576 460.672 369.9C510.137 354.225 522.704 396.457 509.266 425.732" stroke="white" stroke-opacity="0.03" stroke-width="2"/>
<path d="M9.30664 -56.3165C9.73697 -8.06181 41.0353 95.5279 162.786 123.85C314.974 159.252 334.103 128.119 349.131 219.091C364.158 310.063 424.123 363.201 473.588 347.525C523.053 331.85 535.62 374.082 522.182 403.357" stroke="white" stroke-opacity="0.03" stroke-width="2"/>
<path d="M22.2266 -78.6915C22.6569 -30.4368 53.9552 73.1529 175.706 101.475C327.894 136.877 347.023 105.744 362.05 196.716C377.078 287.688 437.043 340.826 486.508 325.15C535.972 309.475 548.54 351.707 535.102 380.982" stroke="white" stroke-opacity="0.03" stroke-width="2"/>
<path d="M35.1445 -101.066C35.5749 -52.8118 66.8732 50.7779 188.624 79.0995C340.812 114.502 359.941 83.3689 374.968 174.341C389.996 265.313 449.961 318.451 499.426 302.775C548.89 287.1 561.458 329.332 548.02 358.607" stroke="white" stroke-opacity="0.03" stroke-width="2"/>
<path d="M48.0605 -123.441C48.4909 -75.1868 79.7892 28.4029 201.54 56.7245C353.728 92.1266 372.857 60.9939 387.884 151.966C402.912 242.938 462.877 296.076 512.342 280.4C561.806 264.725 574.374 306.957 560.936 336.232" stroke="white" stroke-opacity="0.03" stroke-width="2"/>
<path d="M60.9785 -145.816C61.4088 -97.5618 92.7072 6.0279 214.458 34.3495C366.646 69.7516 385.775 38.6189 400.802 129.591C415.83 220.563 475.795 273.701 525.259 258.025C574.724 242.35 587.292 284.582 573.854 313.857" stroke="white" stroke-opacity="0.03" stroke-width="2"/>
<path d="M73.8965 -168.191C74.3268 -119.937 105.625 -16.3471 227.376 11.9745C379.564 47.3766 398.693 16.2439 413.72 107.216C428.748 198.188 488.713 251.326 538.177 235.65C587.642 219.975 600.21 262.207 586.772 291.482" stroke="white" stroke-opacity="0.03" stroke-width="2"/>
<path d="M86.8125 -190.563C87.2428 -142.308 118.541 -38.7183 240.292 -10.3966C392.48 25.0055 411.609 -6.12721 426.636 84.8451C441.664 175.817 501.629 228.955 551.093 213.279C600.558 197.603 613.126 239.835 599.688 269.11" stroke="white" stroke-opacity="0.03" stroke-width="2"/>
<path d="M99.7305 -212.938C100.161 -164.683 131.459 -61.0931 253.21 -32.7715C405.398 2.63057 424.527 -28.5021 439.554 62.4702C454.582 153.442 514.547 206.58 564.011 190.904C613.476 175.229 626.044 217.46 612.606 246.735" stroke="white" stroke-opacity="0.03" stroke-width="2"/>
<path d="M112.648 -235.312C113.079 -187.058 144.377 -83.4681 266.128 -55.1465C418.316 -19.7444 437.445 -50.8771 452.472 40.0952C467.499 131.067 527.465 184.205 576.929 168.529C626.394 152.854 638.962 195.085 625.524 224.36" stroke="white" stroke-opacity="0.03" stroke-width="2"/>
<path d="M125.568 -257.688C125.999 -209.433 157.297 -105.843 279.048 -77.5215C431.236 -42.1194 450.365 -73.2521 465.392 17.7202C480.419 108.692 540.384 161.83 589.849 146.154C639.314 130.479 651.882 172.71 638.444 201.985" stroke="white" stroke-opacity="0.03" stroke-width="2"/>
<path d="M138.486 -280.062C138.917 -231.808 170.215 -128.218 291.966 -99.8965C444.154 -64.4944 463.283 -95.6271 478.31 -4.65482C493.337 86.3174 553.302 139.455 602.767 123.779C652.232 108.104 664.8 150.335 651.362 179.61" stroke="white" stroke-opacity="0.03" stroke-width="2"/>
<path d="M151.404 -302.438C151.835 -254.183 183.133 -150.593 304.884 -122.271C457.072 -86.8694 476.201 -118.002 491.228 -27.0298C506.255 63.9424 566.22 117.08 615.685 101.404C665.15 85.7285 677.718 127.96 664.28 157.235" stroke="white" stroke-opacity="0.03" stroke-width="2"/>
<path d="M164.322 -324.809C164.753 -276.554 196.051 -172.964 317.802 -144.643C469.99 -109.241 489.119 -140.373 504.146 -49.4009C519.173 41.5713 579.138 94.7088 628.603 79.0331C678.068 63.3574 690.636 105.589 677.198 134.864" stroke="white" stroke-opacity="0.03" stroke-width="2"/>
<path d="M177.238 -347.184C177.669 -298.929 208.967 -195.339 330.718 -167.018C482.906 -131.616 502.035 -162.748 517.062 -71.7759C532.089 19.1963 592.054 72.3338 641.519 56.6581C690.984 40.9824 703.552 83.2144 690.114 112.489" stroke="white" stroke-opacity="0.03" stroke-width="2"/>
<path d="M190.156 -369.559C190.587 -321.304 221.885 -217.714 343.636 -189.393C495.824 -153.991 514.953 -185.123 529.98 -94.1509C545.007 -3.17866 604.972 49.9588 654.437 34.2831C703.902 18.6074 716.47 60.8394 703.032 90.1144" stroke="white" stroke-opacity="0.03" stroke-width="2"/>
</svg>
