<svg width="177" height="40" viewBox="0 0 177 40" fill="none" xmlns="http://www.w3.org/2000/svg">
<path fill-rule="evenodd" clip-rule="evenodd" d="M22.5975 4.567L25.5965 0L34.0987 4.317L31.1009 8.883C30.5743 9.684 31.3624 10.658 32.3951 10.483L38.1405 9.508L40 17.985L34.2545 18.959C24.9608 20.535 17.8653 11.775 22.5975 4.567Z" fill="#3A724F"/>
<path fill-rule="evenodd" clip-rule="evenodd" d="M17.4025 35.4329L14.4035 39.9999L5.90014 35.6839L8.89911 31.1169C9.42567 30.3159 8.63754 29.3419 7.60377 29.5169L1.85943 30.4909L0 22.0149L5.74547 21.0409C15.0392 19.4649 22.1335 28.2249 17.4025 35.4329Z" fill="#DC8E43"/>
<path fill-rule="evenodd" clip-rule="evenodd" d="M17.6617 4.567L14.6638 0L6.16048 4.317L9.15945 8.883C9.68487 9.684 8.89788 10.658 7.8641 10.483L2.11863 9.508L0.261475 17.985L6.00581 18.959C15.3007 20.535 22.3961 11.775 17.6628 4.567H17.6617Z" fill="#14424C"/>
<path fill-rule="evenodd" clip-rule="evenodd" d="M22.3471 35.4329L25.3438 39.9999L33.8472 35.6839L30.8482 31.1169C30.3228 30.3159 31.1098 29.3419 32.1435 29.5169L37.8879 30.4909L39.7473 22.0149L34.0018 21.0409C24.7081 19.4649 17.6138 28.2249 22.3449 35.4329H22.3471Z" fill="#C85D1B"/>
<path d="M57.724 10.8C60.0293 10.8 61.8147 11.3547 63.08 12.464C64.3627 13.556 65.004 15.0987 65.004 17.092C65.004 19.1893 64.3627 20.8273 63.08 22.006C61.8147 23.1673 60.0293 23.748 57.724 23.748H52.316L54.11 21.954V29H50.002V10.8H57.724ZM57.516 20.42C58.66 20.42 59.544 20.16 60.168 19.64C60.792 19.1027 61.104 18.2967 61.104 17.222C61.104 16.182 60.792 15.402 60.168 14.882C59.544 14.362 58.66 14.102 57.516 14.102H52.316L54.11 12.308V22.24L52.316 20.42H57.516ZM72.4851 22.942C71.7224 22.942 71.1504 23.072 70.7691 23.332C70.3878 23.592 70.1971 24.008 70.1971 24.58C70.1971 25.1347 70.3878 25.5767 70.7691 25.906C71.1678 26.218 71.7051 26.374 72.3811 26.374C72.9704 26.374 73.4904 26.2787 73.9411 26.088C74.4091 25.88 74.7904 25.6113 75.0851 25.282C75.3971 24.9353 75.5878 24.5367 75.6571 24.086L76.2551 26.322C75.8564 27.258 75.2324 27.9687 74.3831 28.454C73.5338 28.9393 72.4938 29.182 71.2631 29.182C70.2751 29.182 69.4171 28.9913 68.6891 28.61C67.9784 28.2287 67.4238 27.7087 67.0251 27.05C66.6438 26.3913 66.4531 25.646 66.4531 24.814C66.4531 23.514 66.9124 22.4913 67.8311 21.746C68.7498 21.0007 70.0671 20.6193 71.7831 20.602H76.0471V22.942H72.4851ZM75.6311 20.342C75.6311 19.5793 75.3798 18.9813 74.8771 18.548C74.3918 18.1147 73.6724 17.898 72.7191 17.898C72.0951 17.898 71.4278 18.0107 70.7171 18.236C70.0064 18.444 69.2871 18.7473 68.5591 19.146L67.3111 16.546C68.0044 16.182 68.6804 15.8787 69.3391 15.636C69.9978 15.3933 70.6738 15.2113 71.3671 15.09C72.0604 14.9513 72.8144 14.882 73.6291 14.882C75.5184 14.882 76.9744 15.324 77.9971 16.208C79.0198 17.092 79.5398 18.314 79.5571 19.874L79.5831 29H75.6571L75.6311 20.342ZM87.6354 24.242C87.6354 24.866 87.7567 25.308 87.9994 25.568C88.242 25.8107 88.5714 25.9233 88.9874 25.906C89.2474 25.906 89.5334 25.8627 89.8454 25.776C90.1574 25.6893 90.4954 25.5593 90.8594 25.386L91.6914 28.194C91.1714 28.506 90.5994 28.7487 89.9754 28.922C89.3514 29.0953 88.71 29.182 88.0514 29.182C87.2194 29.182 86.4654 29.026 85.7894 28.714C85.1307 28.402 84.6107 27.9253 84.2294 27.284C83.848 26.6427 83.6574 25.8453 83.6574 24.892V11.788H87.6354V24.242ZM81.7074 15.636H91.4314V18.314H81.7074V15.636ZM97.6917 22.708C97.6917 23.6093 97.9257 24.32 98.3937 24.84C98.8617 25.36 99.503 25.62 100.318 25.62C101.288 25.6027 102.042 25.2473 102.58 24.554C103.134 23.8607 103.412 22.9853 103.412 21.928H104.374C104.374 23.5573 104.14 24.9093 103.672 25.984C103.221 27.0413 102.571 27.83 101.722 28.35C100.89 28.87 99.893 29.1387 98.7317 29.156C97.6917 29.156 96.799 28.9393 96.0537 28.506C95.3084 28.0553 94.7277 27.4313 94.3117 26.634C93.8957 25.8367 93.6877 24.892 93.6877 23.8V15.038H97.6917V22.708ZM103.412 15.038H107.39V29H103.412V15.038ZM121.226 21.356C121.226 20.4373 120.974 19.718 120.472 19.198C119.986 18.678 119.319 18.418 118.47 18.418C117.482 18.4353 116.702 18.7907 116.13 19.484C115.558 20.1773 115.272 21.0527 115.272 22.11H114.258C114.258 20.4807 114.492 19.1373 114.96 18.08C115.445 17.0053 116.121 16.208 116.988 15.688C117.872 15.1507 118.912 14.882 120.108 14.882C121.148 14.882 122.049 15.1073 122.812 15.558C123.592 15.9913 124.19 16.6067 124.606 17.404C125.022 18.2013 125.23 19.146 125.23 20.238V29H121.226V21.356ZM111.268 15.038H115.272V29H111.268V15.038ZM141.79 27.7C141.79 29.0173 141.478 30.1613 140.854 31.132C140.23 32.1027 139.363 32.848 138.254 33.368C137.144 33.9053 135.836 34.174 134.328 34.174C133.149 34.174 132.04 34.0007 131 33.654C129.977 33.3247 129.058 32.8913 128.244 32.354L129.726 29.65C130.367 30.1007 131.052 30.4473 131.78 30.69C132.508 30.95 133.27 31.08 134.068 31.08C134.83 31.08 135.489 30.9413 136.044 30.664C136.616 30.404 137.049 30.0227 137.344 29.52C137.656 29.0347 137.812 28.4627 137.812 27.804V15.038H141.79V27.7ZM133.496 14.908C134.674 14.8907 135.68 15.1507 136.512 15.688C137.344 16.2253 137.976 16.9967 138.41 18.002C138.86 18.99 139.077 20.1773 139.06 21.564C139.077 22.9507 138.869 24.1467 138.436 25.152C138.002 26.1573 137.378 26.9287 136.564 27.466C135.749 28.0033 134.761 28.272 133.6 28.272C132.386 28.272 131.32 27.9947 130.402 27.44C129.5 26.868 128.79 26.0793 128.27 25.074C127.75 24.0513 127.49 22.8727 127.49 21.538C127.49 20.2033 127.741 19.0507 128.244 18.08C128.746 17.092 129.448 16.3207 130.35 15.766C131.268 15.194 132.317 14.908 133.496 14.908ZM134.536 17.898C133.894 17.898 133.322 18.054 132.82 18.366C132.317 18.678 131.927 19.12 131.65 19.692C131.39 20.2467 131.251 20.8967 131.234 21.642C131.251 22.37 131.39 23.02 131.65 23.592C131.927 24.1467 132.308 24.58 132.794 24.892C133.296 25.204 133.877 25.36 134.536 25.36C135.177 25.36 135.74 25.204 136.226 24.892C136.728 24.58 137.118 24.1467 137.396 23.592C137.673 23.02 137.812 22.37 137.812 21.642C137.812 20.8967 137.673 20.2467 137.396 19.692C137.118 19.12 136.728 18.678 136.226 18.366C135.74 18.054 135.177 17.898 134.536 17.898ZM150.384 22.942C149.621 22.942 149.049 23.072 148.668 23.332C148.286 23.592 148.096 24.008 148.096 24.58C148.096 25.1347 148.286 25.5767 148.668 25.906C149.066 26.218 149.604 26.374 150.28 26.374C150.869 26.374 151.389 26.2787 151.84 26.088C152.308 25.88 152.689 25.6113 152.984 25.282C153.296 24.9353 153.486 24.5367 153.556 24.086L154.154 26.322C153.755 27.258 153.131 27.9687 152.282 28.454C151.432 28.9393 150.392 29.182 149.162 29.182C148.174 29.182 147.316 28.9913 146.588 28.61C145.877 28.2287 145.322 27.7087 144.924 27.05C144.542 26.3913 144.352 25.646 144.352 24.814C144.352 23.514 144.811 22.4913 145.73 21.746C146.648 21.0007 147.966 20.6193 149.682 20.602H153.946V22.942H150.384ZM153.53 20.342C153.53 19.5793 153.278 18.9813 152.776 18.548C152.29 18.1147 151.571 17.898 150.618 17.898C149.994 17.898 149.326 18.0107 148.616 18.236C147.905 18.444 147.186 18.7473 146.458 19.146L145.21 16.546C145.903 16.182 146.579 15.8787 147.238 15.636C147.896 15.3933 148.572 15.2113 149.266 15.09C149.959 14.9513 150.713 14.882 151.528 14.882C153.417 14.882 154.873 15.324 155.896 16.208C156.918 17.092 157.438 18.314 157.456 19.874L157.482 29H153.556L153.53 20.342ZM170.89 21.356C170.89 20.4373 170.638 19.718 170.136 19.198C169.65 18.678 168.983 18.418 168.134 18.418C167.146 18.4353 166.366 18.7907 165.794 19.484C165.222 20.1773 164.936 21.0527 164.936 22.11H163.922C163.922 20.4807 164.156 19.1373 164.624 18.08C165.109 17.0053 165.785 16.208 166.652 15.688C167.536 15.1507 168.576 14.882 169.772 14.882C170.812 14.882 171.713 15.1073 172.476 15.558C173.256 15.9913 173.854 16.6067 174.27 17.404C174.686 18.2013 174.894 19.146 174.894 20.238V29H170.89V21.356ZM160.932 15.038H164.936V29H160.932V15.038Z" fill="#170C36"/>
</svg>
